<svg width="32" height="32" viewBox="0 0 32 32" fill="none" xmlns="http://www.w3.org/2000/svg">
<g clip-path="url(#clip0_174_19)">
<path d="M23.9999 0H8.00029C3.60079 0 0.000488281 3.6003 0.000488281 7.9998V24.0002C0.000488281 28.3985 3.60079 32 8.00029 32H23.9999C28.3994 32 31.9997 28.3985 31.9997 24.0002V7.9998C31.9997 3.6003 28.3994 0 23.9999 0ZM29.333 24.0002C29.333 26.9401 26.9415 29.3333 23.9999 29.3333H8.00029C5.05997 29.3333 2.66722 26.9401 2.66722 24.0002V7.9998C2.66722 5.0591 5.05997 2.66673 8.00029 2.66673H23.9999C26.9415 2.66673 29.333 5.0591 29.333 7.9998V24.0002Z" fill="white"/>
<path d="M24.6677 9.33303C25.7722 9.33303 26.6676 8.43762 26.6676 7.33308C26.6676 6.22854 25.7722 5.33313 24.6677 5.33313C23.5631 5.33313 22.6677 6.22854 22.6677 7.33308C22.6677 8.43762 23.5631 9.33303 24.6677 9.33303Z" fill="white"/>
<path d="M16 7.99988C11.5809 7.99988 8.00024 11.581 8.00024 15.9997C8.00024 20.4168 11.5809 24.0003 16 24.0003C20.4179 24.0003 23.9998 20.4168 23.9998 15.9997C23.9998 11.581 20.4179 7.99988 16 7.99988ZM16 21.3336C13.0549 21.3336 10.6669 18.9457 10.6669 15.9997C10.6669 13.0538 13.0549 10.6666 16 10.6666C18.9452 10.6666 21.3331 13.0538 21.3331 15.9997C21.3331 18.9457 18.9452 21.3336 16 21.3336Z" fill="white"/>
</g>
<defs>
<clipPath id="clip0_174_19">
<rect width="32" height="32" fill="white"/>
</clipPath>
</defs>
</svg>
