<svg width="120" height="120" viewBox="0 0 120 120" fill="none" xmlns="http://www.w3.org/2000/svg">
<path d="M60 120C93.1371 120 120 93.1371 120 60C120 26.8629 93.1371 0 60 0C26.8629 0 0 26.8629 0 60C0 93.1371 26.8629 120 60 120Z" fill="#C9AB80"/>
<path fill-rule="evenodd" clip-rule="evenodd" d="M53.9999 41.6693V92.8346C53.9999 96.1417 56.7401 98.8346 59.9999 98.8346C63.307 98.8346 65.9999 96.0945 65.9999 92.8346V41.6693L82.3464 57.9685C84.7086 60.3307 88.4881 60.3307 90.8503 57.9685C91.9697 56.8364 92.5976 55.3086 92.5976 53.7165C92.5976 52.1245 91.9697 50.5966 90.8503 49.4646L84.8031 43.559C84.7415 43.4946 84.6785 43.4316 84.6141 43.3701L64.3936 23.1024L64.2519 22.9134C63.7596 22.4218 63.1837 22.0219 62.5511 21.7323H62.4094C61.3047 21.265 60.086 21.1367 58.9082 21.3639C57.7305 21.591 56.6469 22.1633 55.7952 23.0079H55.7479L49.7007 29.0551C49.6526 29.1015 49.6054 29.1488 49.559 29.1968L29.1968 49.5591C28.0691 50.6867 27.4355 52.2162 27.4355 53.811C27.4355 55.4058 28.0691 56.9353 29.1968 58.063C30.3245 59.1907 31.8539 59.8242 33.4487 59.8242C35.0435 59.8242 36.573 59.1907 37.7007 58.063L43.748 51.9685C43.7959 51.922 43.8432 51.8747 43.8897 51.8268L53.9999 41.6693ZM62.4094 21.685C62.3313 21.6518 62.2526 21.6203 62.1731 21.5905Z" fill="white"/>
</svg>
