<svg width="120" height="120" viewBox="0 0 120 120" fill="none" xmlns="http://www.w3.org/2000/svg">
<g clip-path="url(#clip0_186_2)">
<path d="M94.8377 74.3359C92.381 71.7779 89.4178 70.4102 86.2773 70.4102C83.1621 70.4102 80.1735 71.7525 77.6155 74.3106L69.6122 82.2885C68.9537 81.9339 68.2952 81.6047 67.662 81.2754C66.7503 80.8195 65.8892 80.389 65.1547 79.9331C57.6579 75.1717 50.845 68.9666 44.3107 60.938C41.1448 56.9364 39.0174 53.5679 37.4725 50.1488C39.5493 48.2492 41.4741 46.2738 43.3483 44.3742C44.0574 43.6651 44.7666 42.9306 45.4757 42.2215C50.7944 36.9028 50.7944 30.0139 45.4757 24.6953L38.5615 17.7811C37.7764 16.996 36.9659 16.1855 36.2061 15.375C34.6865 13.8048 33.0909 12.1839 31.4447 10.6642C28.988 8.23287 26.0501 6.9412 22.9602 6.9412C19.8703 6.9412 16.8818 8.23287 14.3491 10.6642L14.2984 10.7149L5.6873 19.402C2.44546 22.6438 0.596604 26.5948 0.191374 31.179C-0.416469 38.5744 1.76164 45.4633 3.43321 49.9715C7.53615 61.0393 13.6652 71.2967 22.8082 82.2885C33.9014 95.5344 47.2486 105.994 62.4954 113.365C68.3205 116.125 76.0959 119.392 84.783 119.949C85.3148 119.975 85.872 120 86.3786 120C92.2291 120 97.1425 117.898 100.992 113.719C101.017 113.668 101.068 113.643 101.093 113.592C102.41 111.997 103.93 110.553 105.526 109.008C106.615 107.97 107.729 106.881 108.818 105.741C111.325 103.132 112.642 100.093 112.642 96.9781C112.642 93.8375 111.3 90.8236 108.742 88.291L94.8377 74.3359ZM103.905 101.005C103.879 101.03 103.879 101.005 103.905 101.005C102.917 102.069 101.904 103.031 100.815 104.095C99.1686 105.665 97.497 107.311 95.9268 109.16C93.3688 111.896 90.3549 113.187 86.4039 113.187C86.024 113.187 85.6188 113.187 85.2389 113.162C77.7168 112.681 70.7266 109.743 65.4839 107.235C51.1489 100.296 38.5615 90.4437 28.1015 77.9576C19.4651 67.5483 13.6906 57.9241 9.86622 47.5908C7.51083 41.2844 6.64971 36.371 7.02962 31.7362C7.28289 28.7729 8.42259 26.3162 10.5247 24.2141L19.1612 15.5777C20.4022 14.4126 21.7192 13.7794 23.0108 13.7794C24.6064 13.7794 25.8981 14.7419 26.7086 15.5523L26.7845 15.6283C28.3295 17.0719 29.7984 18.5662 31.3434 20.1618C32.1285 20.9723 32.939 21.7827 33.7494 22.6185L40.6636 29.5327C43.3483 32.2174 43.3483 34.6994 40.6636 37.384C39.9292 38.1185 39.22 38.853 38.4855 39.5621C36.3581 41.7403 34.3319 43.7664 32.1285 45.7419C32.0778 45.7925 32.0272 45.8179 32.0019 45.8685C29.8238 48.0466 30.229 50.1741 30.6849 51.6177L30.7609 51.8457C32.5591 56.2019 35.0917 60.3048 38.9414 65.1929L38.9667 65.2182C45.9569 73.8293 53.3271 80.5409 61.457 85.6823C62.4954 86.3408 63.5591 86.8727 64.5722 87.3792C65.4839 87.8351 66.345 88.2656 67.0795 88.7215C67.1808 88.7722 67.2821 88.8481 67.3834 88.8988C68.2446 89.3294 69.055 89.532 69.8908 89.532C71.9929 89.532 73.3099 88.215 73.7405 87.7844L82.4022 79.1226C83.2634 78.2615 84.631 77.2231 86.2266 77.2231C87.7969 77.2231 89.0885 78.2109 89.8737 79.072L89.9243 79.1226L103.879 93.0777C106.488 95.6611 106.488 98.3204 103.905 101.005ZM64.8508 28.545C71.4864 29.6594 77.5142 32.7999 82.3263 37.612C87.1384 42.4241 90.2536 48.4519 91.3933 55.0875C91.6719 56.7591 93.1155 57.9241 94.7617 57.9241C94.9644 57.9241 95.1416 57.8988 95.3443 57.8734C97.2184 57.5695 98.4595 55.7966 98.1555 53.9225C96.7879 45.8939 92.9889 38.5744 87.189 32.7746C81.3892 26.9747 74.0697 23.1757 66.0411 21.8081C64.1669 21.5041 62.4194 22.7451 62.0901 24.594C61.7609 26.4429 62.9766 28.2411 64.8508 28.545ZM119.861 52.9347C117.607 39.7141 111.376 27.6839 101.803 18.1103C92.2291 8.53679 80.1988 2.3064 66.9782 0.0523095C65.1294 -0.276939 63.3818 0.989402 63.0526 2.83826C62.7486 4.71244 63.9896 6.46 65.8638 6.78924C77.6661 8.79006 88.43 14.3873 96.9905 22.9224C105.551 31.4829 111.123 42.2468 113.124 54.0491C113.402 55.7207 114.846 56.8857 116.492 56.8857C116.695 56.8857 116.872 56.8604 117.075 56.835C118.924 56.5564 120.19 54.7836 119.861 52.9347Z" fill="white"/>
</g>
<defs>
<clipPath id="clip0_186_2">
<rect width="120" height="120" fill="white"/>
</clipPath>
</defs>
</svg>
