<svg width="100" height="100" viewBox="0 0 100 100" fill="none" xmlns="http://www.w3.org/2000/svg">
<g clip-path="url(#clip0_179_2)">
<path d="M42.2916 14.4255C33.9791 17.715 28.5232 25.8226 28.5203 34.706C28.5203 37.931 31.1292 40.5621 34.3804 40.5621C37.6263 40.5621 40.2406 37.9359 40.2406 34.706C40.2484 29.15 44.7203 24.6265 50.3199 24.6224C55.8152 24.6224 60.413 29.2548 60.413 34.6962C60.4111 38.9121 57.8697 42.6105 53.9435 44.1216C51.1267 45.2015 48.7437 47.0625 47.0519 49.5072C43.958 53.9736 44.4675 57.7419 44.4675 63.5957C44.4675 64.0603 44.5222 64.5232 44.6296 64.9742C44.7064 65.2939 44.8887 65.5784 45.1471 65.7818C45.4055 65.9851 45.7249 66.0955 46.0537 66.0951C47.0095 66.0951 47.7001 65.2005 47.4796 64.2869C47.365 63.8123 47.3957 64.1472 47.3957 57.8177C47.4035 52.9361 50.3843 48.6343 54.9943 46.8554C63.6957 43.5224 66.256 32.2812 59.5046 25.5324C51.2826 17.3195 37.2978 23.1716 37.3107 34.7058C37.3068 36.3168 35.9941 37.631 34.3806 37.6347C32.7671 37.6308 31.4525 36.3168 31.4505 34.7058C31.4464 24.1472 40.3212 15.1558 51.5253 15.8722C61.2457 16.4767 69.2033 24.6334 69.2033 34.7076C69.2013 42.5808 64.4488 49.497 57.0982 52.3246C55.9652 52.756 55.0023 53.5019 54.3126 54.4802C52.9845 56.3742 53.2578 57.4738 53.2578 63.5953C53.2539 65.2062 51.9392 66.5203 50.3277 66.5224C49.5191 66.5224 48.8626 67.1802 48.8626 67.9869C48.8626 71.0623 56.181 69.1888 56.1878 63.5953V57.8173C56.1916 56.5875 56.9437 55.5293 58.149 55.0587C66.6664 51.7871 72.141 43.689 72.1332 34.708C72.1332 19.4095 56.5867 8.75152 42.2916 14.4255ZM55.3257 78.216C53.0423 74.4337 47.7746 74.5123 45.4499 78.0105C42.8972 81.8535 45.5748 87.1056 50.3746 87.1056C54.797 87.1056 57.7437 82.2214 55.3257 78.216ZM49.6277 84.0845C48.4917 83.8044 47.6798 82.9599 47.4558 81.8253C46.8558 78.5869 51.1359 76.9443 52.8171 79.7294C54.1802 81.9875 52.1873 84.7158 49.6277 84.0845Z" fill="white"/>
<path d="M75.0747 6.74393C49.0544 -8.35333 15.6212 2.89413 3.93136 30.5488C-0.825673 41.7838 -1.22196 54.3668 2.50538 65.6637C5.09815 73.5211 9.35831 79.2379 9.70148 79.5414L9.70733 79.5336L9.70343 79.5433C9.70733 79.5473 9.71124 79.5492 9.7171 79.5551C9.71905 79.5551 9.71905 79.5572 9.72101 79.5592C9.72296 79.5592 9.72296 79.5611 9.72491 79.5631C10.2757 80.0254 10.7427 79.8932 10.938 79.8932L10.9419 79.8912C10.9605 79.8912 11.0937 79.8613 11.2192 79.8111H11.2232L11.2564 79.7955H11.2603C12.2073 79.3889 12.3747 78.1871 11.8618 77.5869C-10.7452 46.3887 11.8515 2.94803 50.0073 2.94803C76.3407 2.94803 97.0833 24.4232 97.0833 50.0072C97.0833 76.0123 76.0271 97.0664 50.0073 97.0664C40.0218 97.0664 30.4796 93.9771 22.4142 88.135C21.965 87.8088 21.3458 87.768 20.8573 88.0334L4.41378 96.9336C3.63194 97.3517 2.92628 96.6691 2.93116 96.0685C2.93526 95.7178 2.57589 96.4857 9.17608 84.2978C9.70675 83.3205 8.98976 82.1363 7.89073 82.1363C7.62664 82.1361 7.36742 82.2074 7.14049 82.3424C6.91357 82.4775 6.72739 82.6715 6.60167 82.9037C-0.0424705 95.1684 -0.00282166 94.7572 0.0012799 96.0685C0.00655334 98.9394 3.11671 100.969 5.8087 99.5111L21.4493 91.0424C38.3579 102.832 60.8759 102.998 77.9659 91.4582C108.563 70.7986 107.011 25.2691 75.0747 6.74393Z" fill="white"/>
</g>
<defs>
<clipPath id="clip0_179_2">
<rect width="100" height="100" fill="white"/>
</clipPath>
</defs>
</svg>
